# xmcd
#
# Track frame offsets:
#	150
#	9280
#	18192
#	27947
#	41407
#	51662
#	64057
#	73662
#	85727
#	95627
#	106972
#	117142
#	128937
#	143057
#	157662
#	166892
#	175880
#	188705
#	199252
#	212862
#
# Disc length: 2999 seconds
#
# Revision: 0
# Processed by: cddbd v1.5.1PL0 Copyright (c) Steve Scherf et al.
# Submitted via: audiograbber 1.83.01
#
DISCID=0c0bb514
DTITLE=Elvis Presley - Ticket to Elvis 1
DYEAR=1994
DGENRE=Oldies
TTITLE0=Blue Suede Shoes
TTITLE1=All Shook Up
TTITLE2=Heartbreak Hotel
TTITLE3=Such A Night
TTITLE4=Hound Dog
TTITLE5=Love Me
TTITLE6=Return to Sender
TTITLE7=Blueberry Hill
TTITLE8=Treat Me Nice
TTITLE9=One Night
TTITLE10=Wear My Ring Around Your Neck
TTITLE11=(Now And Then There's) A Fool Such As I
TTITLE12=Are You Lonesome Tonight
TTITLE13=It's Now or Never
TTITLE14=Wooden Heart
TTITLE15=Mexico
TTITLE16=Love Letters
TTITLE17=Devil In Disguise
TTITLE18=Can't Help Falling in Love
TTITLE19=Love Me Tender
EXTD=
EXTT0=
EXTT1=
EXTT2=
EXTT3=
EXTT4=
EXTT5=
EXTT6=
EXTT7=
EXTT8=
EXTT9=
EXTT10=
EXTT11=
EXTT12=
EXTT13=
EXTT14=
EXTT15=
EXTT16=
EXTT17=
EXTT18=
EXTT19=
PLAYORDER=
